<svg width="25" height="25" viewBox="0 0 25 25" fill="none" xmlns="http://www.w3.org/2000/svg">
<g clip-path="url(#clip0)">
<path d="M10.8478 14.3273C12.2395 15.739 13.9234 16.829 15.7812 17.5206L18.2945 15.5206C18.369 15.4693 18.4574 15.4418 18.5478 15.4418C18.6383 15.4418 18.7267 15.4693 18.8012 15.5206L23.4678 18.5273C23.645 18.6338 23.795 18.78 23.9059 18.9545C24.0168 19.1289 24.0857 19.3267 24.107 19.5324C24.1284 19.738 24.1016 19.9457 24.0289 20.1392C23.9561 20.3327 23.8394 20.5066 23.6878 20.6473L21.5012 22.8073C21.188 23.1167 20.8031 23.3438 20.3809 23.4682C19.9586 23.5927 19.5121 23.6107 19.0812 23.5206C14.7826 22.6328 10.8206 20.5536 7.64783 17.5206C4.54549 14.4574 2.39868 10.5598 1.46783 6.3006C1.37588 5.87636 1.39507 5.43556 1.52355 5.02092C1.65203 4.60627 1.88545 4.23185 2.20117 3.93393L4.46783 1.74727C4.6081 1.60312 4.77916 1.49258 4.9682 1.42392C5.15724 1.35525 5.35937 1.33024 5.55944 1.35077C5.75952 1.37129 5.95236 1.4368 6.12353 1.54241C6.29469 1.64802 6.43975 1.79099 6.54783 1.9606L9.6545 6.56727C9.70809 6.6396 9.73701 6.72724 9.73701 6.81727C9.73701 6.90729 9.70809 6.99493 9.6545 7.06727L7.60783 9.52727C8.31822 11.3479 9.42499 12.9875 10.8478 14.3273Z" fill="#27272A"/>
</g>
<defs>
<clipPath id="clip0">
<rect width="24" height="24" fill="white" transform="translate(0.701172 0.567261)"/>
</clipPath>
</defs>
</svg>
