<svg width="45" height="45" viewBox="0 0 45 45" fill="none" xmlns="http://www.w3.org/2000/svg">
<path d="M22.7011 34.0673C21.0174 32.631 19.4567 31.0565 18.0354 29.3602C15.9025 26.8127 13.3696 23.0187 13.3696 19.4035C13.3687 17.5571 13.9155 15.752 14.9409 14.2165C15.9663 12.681 17.4241 11.4843 19.1299 10.7777C20.8357 10.0711 22.7128 9.88636 24.5236 10.247C26.3344 10.6076 27.9975 11.4972 29.3025 12.8034C30.1714 13.6684 30.86 14.6971 31.3286 15.83C31.7973 16.9629 32.0366 18.1775 32.0327 19.4035C32.0327 23.0187 29.4998 26.8127 27.3669 29.3602C25.9456 31.0565 24.3849 32.631 22.7011 34.0673ZM22.7011 15.4042C21.6405 15.4042 20.6233 15.8256 19.8733 16.5756C19.1233 17.3256 18.7019 18.3428 18.7019 19.4035C18.7019 20.4641 19.1233 21.4813 19.8733 22.2313C20.6233 22.9813 21.6405 23.4027 22.7011 23.4027C23.7618 23.4027 24.779 22.9813 25.529 22.2313C26.279 21.4813 26.7004 20.4641 26.7004 19.4035C26.7004 18.3428 26.279 17.3256 25.529 16.5756C24.779 15.8256 23.7618 15.4042 22.7011 15.4042Z" fill="#27272A"/>
</svg>
