<svg width="25" height="25" viewBox="0 0 25 25" fill="none" xmlns="http://www.w3.org/2000/svg">
<path d="M22.2545 4.56726C22.1636 4.5579 22.0721 4.5579 21.9812 4.56726H3.31451C3.19488 4.56911 3.07603 4.58705 2.96118 4.6206L12.5945 14.2139L22.2545 4.56726Z" fill="#27272A"/>
<path d="M23.2411 5.49393L13.5345 15.1606C13.2846 15.4089 12.9467 15.5483 12.5945 15.5483C12.2422 15.5483 11.9043 15.4089 11.6545 15.1606L2.03446 5.56726C2.00489 5.67595 1.98921 5.78796 1.98779 5.90059V19.2339C1.98779 19.5875 2.12827 19.9267 2.37832 20.1767C2.62837 20.4268 2.9675 20.5673 3.32113 20.5673H21.9878C22.3414 20.5673 22.6806 20.4268 22.9306 20.1767C23.1807 19.9267 23.3211 19.5875 23.3211 19.2339V5.90059C23.3158 5.7617 23.2888 5.62448 23.2411 5.49393ZM4.23446 19.2339H3.30779V18.2806L8.15446 13.4739L9.09446 14.4139L4.23446 19.2339ZM21.9745 19.2339H21.0411L16.1811 14.4139L17.1211 13.4739L21.9678 18.2806L21.9745 19.2339Z" fill="#27272A"/>
</svg>
